# xmcd CD database file
#
# Track frame offsets:
#	150
#	17525
#	34640
#	48417
#	59785
#	74800
#	90200
#	104442
#	123842
#	137427
#	150297
#	189545
#
# Disc length: 2686 seconds
#
# Revision: 1
# Processed by: cddbd v1.5.2PL0 Copyright (c) Steve Scherf et al.
# Submitted via: CDex 1.70beta2
#
DISCID=980a7c0c
DTITLE=Climax Chicago Blues Band - Climax Chicago Blues Band
DYEAR=1969
DGENRE=Blues
TTITLE0=Mean Old World
TTITLE1=Insurance
TTITLE2=Going Down This Road
TTITLE3=You've Been Drinking
TTITLE4=Don't Start Me Talking
TTITLE5=Wee Baby Blues
TTITLE6=Twenty Past One
TTITLE7=A Stranger In Your Town
TTITLE8=How Many More Years
TTITLE9=Looking For My Baby
TTITLE10=And Lonely
TTITLE11=The Entertainer
EXTD=YEAR: 1969
EXTT0=
EXTT1=
EXTT2=
EXTT3=
EXTT4=
EXTT5=
EXTT6=
EXTT7=
EXTT8=
EXTT9=
EXTT10=
EXTT11=
PLAYORDER=
